<svg width="93" height="28" viewBox="0 0 93 28" fill="none" xmlns="http://www.w3.org/2000/svg">
<path fill-rule="evenodd" clip-rule="evenodd" d="M24.1803 0.896973H28.4114V27.0193H24.1803V0.896973ZM43.1282 18.7391C43.1282 22.7862 39.8169 23.1542 38.7132 23.1542C36.1377 23.1542 35.7698 20.7627 35.7698 19.475V9.35718H31.5387V19.291C31.5387 21.6825 32.2746 23.89 33.7462 25.1777C35.034 26.4654 36.6896 27.0173 38.7132 27.0173C40.1848 27.0173 42.0244 26.6494 43.1282 25.5456V27.0173H47.3593V9.35718H43.1282V18.7391ZM51.4062 2.91919H55.6372V9.35779H58.7645V13.4049H55.6372V27.0179H51.4062V13.4049H48.2788V9.35779H51.4062V2.91919ZM72.0096 21.6844C71.0898 22.4203 69.8021 22.9722 68.5144 22.9722C65.571 22.9722 63.5475 20.7646 63.5475 17.8213C63.5475 14.8779 65.571 12.8544 68.5144 12.8544C69.8021 12.8544 71.0898 13.2223 72.0096 14.1421L72.5615 14.694L75.5049 11.9346L74.769 11.3827C73.1134 9.91101 70.9059 8.99121 68.5144 8.99121C63.3635 8.99121 59.5004 12.8544 59.5004 18.0052C59.5004 23.1561 63.3635 27.0193 68.5144 27.0193C70.9059 27.0193 73.1134 26.0995 74.769 24.6278L75.5049 24.0759L72.5615 21.1326L72.0096 21.6844ZM85.8064 8.99121C87.8299 8.99121 89.1176 9.54309 90.4054 10.8308C91.6931 12.1185 92.245 14.3261 92.245 16.7175V26.8353H88.0139V16.5336C88.0139 16.4567 88.0146 16.3759 88.0152 16.2918V16.2905C88.026 14.9674 88.0433 12.8544 85.6224 12.8544C84.5186 12.8544 81.7592 13.2223 81.7592 17.2694V27.0193H77.5282V0.896973H81.7592V10.4629C82.863 9.35913 84.3347 8.99121 85.8064 8.99121ZM68.3305 20.95C69.9561 20.95 71.2739 19.6322 71.2739 18.0066C71.2739 16.381 69.9561 15.0632 68.3305 15.0632C66.705 15.0632 65.3872 16.381 65.3872 18.0066C65.3872 19.6322 66.705 20.95 68.3305 20.95ZM12.2229 22.9731C14.6143 22.9731 16.8219 22.0533 18.2935 20.5816L18.8454 20.0297L21.6048 22.7891L21.0529 23.341C18.8454 25.7325 15.5341 27.0202 12.2229 27.0202C5.41634 27.0202 0.265457 21.5014 0.265457 14.327C0.265457 7.15254 5.41634 1.63374 12.4068 1.8177C15.7181 1.8177 18.8454 3.10542 21.2369 5.4969L21.7888 6.04878L19.0294 8.80818L18.4775 8.2563C16.8219 6.60066 14.6143 5.68086 12.4068 5.68086C7.62385 5.68086 4.31258 9.36006 4.31258 14.327C4.31258 19.2939 7.62385 22.9731 12.2229 22.9731Z" fill="white"/>
</svg>
