<svg width="68" height="33" viewBox="0 0 68 33" fill="none" xmlns="http://www.w3.org/2000/svg">
<path d="M5.88911 16.6603C5.88911 22.4103 10.4999 27.0875 16.1839 27.0875H25.8006C26.4035 27.0875 26.8731 26.5127 26.8731 26.0055V6.89774C26.8737 6.3173 27.1016 5.76081 27.5068 5.35038C27.912 4.93995 28.4614 4.70912 29.0345 4.70855C29.4096 4.7081 29.7783 4.80673 30.1042 4.99472C30.4301 5.18272 30.702 5.45356 30.893 5.78051L42.9732 26.8763C43.0761 27.0442 43.23 27.1737 43.4118 27.2454C43.5936 27.3171 43.7934 27.3271 43.9813 27.2739C44.1692 27.2206 44.3349 27.1071 44.4536 26.9503C44.5723 26.7934 44.6375 26.6018 44.6395 26.4043V6.89774C44.64 6.3173 44.8679 5.76081 45.2732 5.35038C45.6784 4.93995 46.2278 4.70912 46.8009 4.70855C47.1759 4.7081 47.5446 4.80673 47.8706 4.99472C48.1965 5.18272 48.4684 5.45356 48.6594 5.78051L60.7275 26.8749C60.8304 27.0427 60.9842 27.1722 61.166 27.2439C61.3477 27.3156 61.5475 27.3257 61.7353 27.2725C61.9231 27.2194 62.0889 27.106 62.2076 26.9493C62.3264 26.7926 62.3917 26.6011 62.3938 26.4035V1.11332H58.6037V16.1667L51.5138 3.80902C50.5115 2.0732 48.6104 0.976807 46.5867 0.976807C43.4173 0.976807 40.8409 3.58127 40.8409 6.7914V16.1675L33.751 3.80974C32.7458 2.07463 30.8448 0.978962 28.8231 0.978962C25.6537 0.978962 23.0774 3.58342 23.0774 6.79356V22.1976C23.0795 22.758 22.6631 23.2466 22.0573 23.248H16.2123C14.4871 23.248 12.8326 22.5539 11.6127 21.3183C10.3929 20.0828 9.70754 18.407 9.70754 16.6596C9.70754 14.9123 10.3929 13.2365 11.6127 12.0009C12.8326 10.7654 14.4871 10.0712 16.2123 10.0712H21.1082V6.23315H16.1711C10.507 6.23315 5.88911 10.9032 5.88911 16.6603ZM63.655 1.11475V26.405C63.6545 26.9854 63.4266 27.5419 63.0214 27.9523C62.6161 28.3628 62.0667 28.5936 61.4936 28.5942C61.1186 28.5947 60.75 28.4962 60.4241 28.3083C60.0981 28.1204 59.8262 27.8497 59.6352 27.5229L47.5655 6.42714C47.4627 6.2593 47.3089 6.1298 47.1272 6.05809C46.9454 5.98638 46.7456 5.97633 46.5578 6.02947C46.37 6.0826 46.2042 6.19604 46.0855 6.35274C45.9667 6.50943 45.9014 6.70093 45.8993 6.89846V26.405C45.8987 26.9854 45.6708 27.5419 45.2656 27.9523C44.8604 28.3628 44.311 28.5936 43.7379 28.5942C43.3621 28.5947 42.9928 28.4955 42.6667 28.3064C42.3406 28.1173 42.0691 27.845 41.8794 27.5165L29.7999 6.42714C29.646 6.1613 29.3445 5.99605 29.0317 5.99605C28.7937 5.99681 28.5657 6.09289 28.3975 6.2633C28.2292 6.43372 28.1344 6.66464 28.1336 6.90564V26.0055C28.1336 27.2628 27.0426 28.3671 25.7984 28.3671H16.1832C13.1187 28.3641 10.1806 27.1297 8.01367 24.9349C5.84674 22.7401 4.62805 19.7642 4.62504 16.6603C4.62805 13.5564 5.84674 10.5805 8.01367 8.38575C10.1806 6.19096 13.1187 4.95659 16.1832 4.95355H21.1203V1.11475H16.196C7.71923 1.11475 0.847046 8.07459 0.847046 16.6611C0.847046 25.2475 7.71214 32.2074 16.196 32.2074H25.9041C29.5814 32.2095 31.9464 30.0268 31.9336 26.0012V17.1338L39.0236 29.4915C40.0259 31.2274 41.9269 32.3237 43.9507 32.3237C47.1201 32.3237 49.6964 29.7193 49.6964 26.5099V17.1338L56.7864 29.4915C57.7894 31.2274 59.6905 32.3237 61.7135 32.3237C64.8829 32.3237 67.4593 29.7193 67.4593 26.5099V1.11475H63.655Z" fill="white"/>
</svg>
