<svg width="104" height="35" viewBox="0 0 104 35" fill="none" xmlns="http://www.w3.org/2000/svg">
<path d="M25.3575 12.9385H13.3186V16.4957H21.8501C21.4235 21.5232 17.2526 23.6575 13.3186 23.6575C8.29451 23.6575 3.88657 19.6734 3.88657 14.1242C3.88657 8.71732 8.05752 4.54357 13.3186 4.54357C17.3474 4.54357 19.7646 7.10474 19.7646 7.10474L22.2767 4.49614C22.2767 4.49614 19.0537 0.938965 13.2238 0.938965C5.78246 0.986394 0 7.29445 0 14.0768C0 20.7643 5.40328 27.2621 13.4134 27.2621C20.4282 27.2621 25.5945 22.4243 25.5945 15.31C25.5945 13.7922 25.3575 12.9385 25.3575 12.9385ZM35.2161 10.3773C30.2868 10.3773 26.732 14.2191 26.732 18.7723C26.732 23.3255 30.1446 27.2621 35.2635 27.2621C39.861 27.2621 43.6528 23.7049 43.6528 18.8671C43.7002 13.2231 39.2923 10.3773 35.2161 10.3773ZM35.2635 13.6974C37.6808 13.6974 40.0032 15.642 40.0032 18.8197C40.0032 21.9026 37.7282 23.942 35.2635 23.942C32.5619 23.942 30.429 21.8077 30.429 18.8197C30.429 15.8791 32.5619 13.6974 35.2635 13.6974ZM53.6536 10.3773C48.7243 10.3773 45.1695 14.2191 45.1695 18.7723C45.1695 23.3255 48.5821 27.2621 53.701 27.2621C58.2985 27.2621 62.0903 23.7049 62.0903 18.8671C62.1377 13.2231 57.7298 10.3773 53.6536 10.3773ZM53.701 13.6974C56.1183 13.6974 58.4407 15.642 58.4407 18.8197C58.4407 21.9026 56.1657 23.942 53.701 23.942C50.9994 23.942 48.8665 21.8077 48.8665 18.8197C48.9139 15.8791 50.9994 13.6974 53.701 13.6974ZM71.7593 10.3773C67.2092 10.3773 63.6544 14.3614 63.6544 18.8197C63.6544 23.8946 67.778 27.2621 71.6646 27.2621C74.0818 27.2621 75.3615 26.3135 76.3095 25.2226V26.8826C76.3095 29.7758 74.5558 31.5307 71.8541 31.5307C69.2947 31.5307 67.9676 29.6335 67.541 28.5427L64.318 29.9181C65.4555 32.337 67.778 34.8981 71.9015 34.8981C76.4043 34.8981 79.8643 32.0524 79.8643 26.0763V10.8991H76.3095V12.3219C75.2193 11.1362 73.75 10.3773 71.7593 10.3773ZM72.0911 13.6974C74.3188 13.6974 76.5939 15.5945 76.5939 18.8197C76.5939 22.1397 74.3188 23.942 72.0437 23.942C69.6265 23.942 67.3988 21.9974 67.3988 18.8671C67.3514 15.5945 69.7213 13.6974 72.0911 13.6974ZM95.5527 10.3299C91.287 10.3299 87.6848 13.7448 87.6848 18.7723C87.6848 24.0843 91.6662 27.2621 95.9793 27.2621C99.5341 27.2621 101.762 25.3175 103.041 23.5626L100.103 21.618C99.3445 22.8037 98.0648 23.942 95.9793 23.942C93.6095 23.942 92.5193 22.6615 91.8558 21.3809L103.184 16.6854L102.615 15.31C101.477 12.6065 98.9179 10.3299 95.5527 10.3299ZM95.6949 13.6025C97.259 13.6025 98.3492 14.4088 98.8232 15.4048L91.287 18.5826C90.9552 16.1163 93.2777 13.6025 95.6949 13.6025ZM82.3289 26.7403H86.0259V1.88755H82.3289V26.7403Z" fill="white"/>
</svg>
