<svg width="494" height="240" viewBox="0 0 494 240" fill="none" xmlns="http://www.w3.org/2000/svg">
<g filter="url(#filter0_d_1_139)">
<rect x="8" width="477.143" height="200" rx="5.3312" fill="url(#paint0_linear_1_139)" shape-rendering="crispEdges"/>
<path d="M48.6864 39.6138V80.3248H42.5241V45.7761H42.2856L32.5451 52.1372V46.2532L42.703 39.6138H48.6864ZM73.8724 81.0007C70.7316 80.9874 68.048 80.1592 65.8216 78.5159C63.5952 76.8726 61.8923 74.4806 60.7129 71.3398C59.5334 68.199 58.9437 64.4155 58.9437 59.9892C58.9437 55.5762 59.5334 51.8059 60.7129 48.6784C61.9056 45.5508 63.6151 43.1654 65.8415 41.5221C68.0811 39.8789 70.7581 39.0572 73.8724 39.0572C76.9867 39.0572 79.657 39.8855 81.8834 41.542C84.1098 43.1853 85.8127 45.5707 86.9921 48.6983C88.1848 51.8125 88.7812 55.5762 88.7812 59.9892C88.7812 64.4287 88.1915 68.2189 87.012 71.3597C85.8326 74.4872 84.1296 76.8792 81.9033 78.5358C79.6769 80.1791 76.9999 81.0007 73.8724 81.0007ZM73.8724 75.6932C76.6289 75.6932 78.7823 74.348 80.3329 71.6578C81.8966 68.9676 82.6785 65.0781 82.6785 59.9892C82.6785 56.6099 82.3207 53.754 81.6051 51.4216C80.9027 49.0759 79.8889 47.3001 78.5637 46.0942C77.2517 44.875 75.6879 44.2654 73.8724 44.2654C71.1292 44.2654 68.9757 45.6171 67.4119 48.3206C65.8481 51.024 65.0596 54.9136 65.0464 59.9892C65.0464 63.3818 65.3975 66.2509 66.0999 68.5966C66.8155 70.929 67.8293 72.6981 69.1413 73.9041C70.4533 75.0968 72.0303 75.6932 73.8724 75.6932Z" fill="white"/>
<rect x="397.84" y="21.3248" width="65.9776" height="37.6624" rx="18.6592" fill="white"/>
<path d="M418.792 45.815C418.08 45.815 417.44 45.6787 416.873 45.4061C416.308 45.1297 415.858 44.7511 415.521 44.2702C415.184 43.7893 415.004 43.2403 414.981 42.6231H416.685C416.727 43.1229 416.948 43.5337 417.35 43.8556C417.751 44.1774 418.232 44.3384 418.792 44.3384C419.239 44.3384 419.635 44.2361 419.979 44.0317C420.328 43.8234 420.6 43.5375 420.797 43.174C420.998 42.8106 421.098 42.3959 421.098 41.9302C421.098 41.4569 420.996 41.0347 420.791 40.6637C420.587 40.2926 420.305 40.0011 419.945 39.789C419.589 39.577 419.18 39.4691 418.718 39.4653C418.366 39.4653 418.012 39.5259 417.656 39.647C417.3 39.7682 417.013 39.9272 416.793 40.1241L415.186 39.8856L415.839 34.0243H422.234V35.5294H417.298L416.929 38.7838H416.997C417.225 38.5641 417.526 38.3805 417.901 38.2328C418.279 38.0852 418.684 38.0113 419.116 38.0113C419.824 38.0113 420.454 38.1798 421.007 38.5168C421.564 38.8538 422.001 39.3138 422.319 39.8969C422.641 40.4763 422.8 41.1427 422.796 41.8961C422.8 42.6496 422.63 43.3217 422.285 43.9124C421.944 44.5031 421.471 44.9688 420.865 45.3096C420.263 45.6465 419.572 45.815 418.792 45.815Z" fill="#A82210"/>
<path fill-rule="evenodd" clip-rule="evenodd" d="M438.162 33.9364C438.162 33.3843 437.714 32.9368 437.162 32.9368C436.61 32.9368 436.162 33.3843 436.162 33.9364V43.9625L431.649 39.4492C431.259 39.0589 430.626 39.0589 430.235 39.4492C429.845 39.8396 429.845 40.4725 430.235 40.8629L436.455 47.0826C436.846 47.473 437.478 47.473 437.869 47.0826L444.089 40.8629C444.479 40.4725 444.479 39.8396 444.089 39.4492C443.698 39.0589 443.065 39.0589 442.675 39.4492L438.162 43.9626V33.9364Z" fill="#A82210"/>
<path d="M33.3687 157.832V173.341H31.0287V157.832H33.3687ZM38.8589 166.434V173.341H36.5947V161.709H38.768V163.602H38.9119C39.1795 162.986 39.5985 162.492 40.169 162.118C40.7445 161.744 41.469 161.558 42.3424 161.558C43.135 161.558 43.8291 161.724 44.4249 162.057C45.0206 162.386 45.4825 162.875 45.8107 163.527C46.1388 164.178 46.3029 164.983 46.3029 165.942V173.341H44.0387V166.215C44.0387 165.372 43.819 164.713 43.3798 164.238C42.9406 163.759 42.3373 163.519 41.5699 163.519C41.0449 163.519 40.5779 163.633 40.169 163.86C39.7651 164.087 39.4445 164.42 39.2072 164.859C38.975 165.294 38.8589 165.819 38.8589 166.434ZM57.1925 177.703V171.531H57.0562C56.9199 171.778 56.723 172.061 56.4655 172.379C56.2131 172.697 55.8647 172.975 55.4205 173.212C54.9762 173.449 54.4007 173.568 53.6939 173.568C52.7549 173.568 51.9168 173.328 51.1797 172.849C50.4477 172.364 49.8722 171.675 49.4532 170.781C49.0392 169.883 48.8322 168.805 48.8322 167.548C48.8322 166.291 49.0417 165.215 49.4607 164.322C49.8848 163.428 50.4654 162.744 51.2025 162.269C51.9395 161.795 52.7751 161.558 53.709 161.558C54.431 161.558 55.0115 161.679 55.4508 161.921C55.895 162.158 56.2383 162.436 56.4807 162.754C56.728 163.072 56.9199 163.352 57.0562 163.595H57.2455V161.709H59.4567V177.703H57.1925ZM54.1937 171.637C54.8449 171.637 55.3952 171.465 55.8445 171.122C56.2989 170.774 56.6422 170.292 56.8744 169.676C57.1117 169.06 57.2304 168.343 57.2304 167.525C57.2304 166.717 57.1142 166.01 56.882 165.405C56.6498 164.799 56.309 164.327 55.8597 163.988C55.4104 163.65 54.855 163.481 54.1937 163.481C53.5121 163.481 52.9442 163.658 52.4898 164.011C52.0355 164.365 51.6922 164.847 51.4599 165.458C51.2327 166.068 51.1192 166.758 51.1192 167.525C51.1192 168.302 51.2353 169.002 51.4675 169.623C51.6997 170.244 52.043 170.736 52.4974 171.099C52.9568 171.458 53.5222 171.637 54.1937 171.637ZM69.8692 168.517V161.709H72.1411V173.341H69.9147V171.326H69.7935C69.5259 171.947 69.0968 172.465 68.5062 172.879C67.9205 173.288 67.191 173.492 66.3176 173.492C65.5705 173.492 64.9091 173.328 64.3336 173C63.7631 172.667 63.3138 172.175 62.9856 171.523C62.6625 170.872 62.501 170.067 62.501 169.108V161.709H64.7652V168.835C64.7652 169.628 64.9848 170.259 65.4241 170.728C65.8633 171.198 66.4337 171.432 67.1355 171.432C67.5596 171.432 67.9811 171.326 68.4001 171.114C68.8242 170.902 69.1751 170.582 69.4527 170.153C69.7355 169.724 69.8743 169.178 69.8692 168.517ZM75.1834 173.341V161.709H77.4477V173.341H75.1834ZM76.3269 159.914C75.9331 159.914 75.5949 159.783 75.3121 159.521C75.0345 159.253 74.8956 158.935 74.8956 158.566C74.8956 158.193 75.0345 157.875 75.3121 157.612C75.5949 157.345 75.9331 157.211 76.3269 157.211C76.7207 157.211 77.0564 157.345 77.3341 157.612C77.6168 157.875 77.7581 158.193 77.7581 158.566C77.7581 158.935 77.6168 159.253 77.3341 159.521C77.0564 159.783 76.7207 159.914 76.3269 159.914ZM80.4938 173.341V161.709H82.6823V163.557H82.8035C83.0155 162.931 83.3891 162.439 83.9242 162.08C84.4644 161.717 85.0753 161.535 85.7568 161.535C85.8982 161.535 86.0648 161.54 86.2566 161.55C86.4535 161.56 86.6075 161.573 86.7186 161.588V163.754C86.6277 163.728 86.4662 163.701 86.2339 163.67C86.0017 163.635 85.7695 163.617 85.5372 163.617C85.0021 163.617 84.525 163.731 84.106 163.958C83.692 164.18 83.3639 164.491 83.1215 164.89C82.8792 165.283 82.758 165.733 82.758 166.238V173.341H80.4938ZM88.678 173.341V161.709H90.9423V173.341H88.678ZM89.8215 159.914C89.4277 159.914 89.0895 159.783 88.8068 159.521C88.5291 159.253 88.3903 158.935 88.3903 158.566C88.3903 158.193 88.5291 157.875 88.8068 157.612C89.0895 157.345 89.4277 157.211 89.8215 157.211C90.2153 157.211 90.551 157.345 90.8287 157.612C91.1114 157.875 91.2528 158.193 91.2528 158.566C91.2528 158.935 91.1114 159.253 90.8287 159.521C90.551 159.783 90.2153 159.914 89.8215 159.914ZM99.0016 173.576C97.8555 173.576 96.8686 173.331 96.0406 172.841C95.2177 172.346 94.5816 171.652 94.1323 170.759C93.688 169.86 93.4659 168.807 93.4659 167.601C93.4659 166.409 93.688 165.359 94.1323 164.45C94.5816 163.542 95.2076 162.832 96.0103 162.322C96.8181 161.813 97.7621 161.558 98.8425 161.558C99.4988 161.558 100.135 161.666 100.751 161.883C101.367 162.1 101.92 162.441 102.409 162.906C102.899 163.37 103.285 163.973 103.568 164.715C103.851 165.453 103.992 166.349 103.992 167.404V168.207H94.7457V166.51H101.773C101.773 165.914 101.652 165.387 101.41 164.928C101.167 164.463 100.827 164.097 100.387 163.829C99.9532 163.562 99.4433 163.428 98.8577 163.428C98.2216 163.428 97.6662 163.585 97.1917 163.898C96.7222 164.206 96.3587 164.609 96.1012 165.109C95.8488 165.604 95.7226 166.142 95.7226 166.722V168.047C95.7226 168.825 95.8589 169.486 96.1315 170.032C96.4092 170.577 96.7954 170.993 97.2901 171.281C97.7849 171.564 98.3629 171.705 99.0243 171.705C99.4534 171.705 99.8446 171.645 100.198 171.523C100.551 171.397 100.857 171.21 101.114 170.963C101.372 170.716 101.569 170.41 101.705 170.047L103.848 170.433C103.676 171.064 103.368 171.617 102.924 172.091C102.485 172.561 101.932 172.927 101.266 173.189C100.604 173.447 99.8497 173.576 99.0016 173.576ZM115.22 164.549L113.168 164.912C113.082 164.65 112.946 164.4 112.759 164.163C112.578 163.925 112.33 163.731 112.017 163.58C111.704 163.428 111.313 163.352 110.843 163.352C110.202 163.352 109.667 163.496 109.238 163.784C108.809 164.067 108.594 164.433 108.594 164.882C108.594 165.271 108.738 165.584 109.026 165.821C109.314 166.058 109.778 166.253 110.419 166.404L112.267 166.828C113.337 167.076 114.135 167.457 114.66 167.972C115.185 168.487 115.448 169.156 115.448 169.979C115.448 170.675 115.246 171.296 114.842 171.841C114.443 172.382 113.885 172.806 113.168 173.114C112.456 173.422 111.631 173.576 110.692 173.576C109.389 173.576 108.327 173.298 107.504 172.743C106.681 172.182 106.176 171.387 105.989 170.357L108.178 170.024C108.314 170.594 108.594 171.026 109.018 171.319C109.442 171.607 109.995 171.751 110.677 171.751C111.419 171.751 112.012 171.597 112.456 171.289C112.901 170.976 113.123 170.594 113.123 170.145C113.123 169.782 112.986 169.476 112.714 169.229C112.446 168.981 112.035 168.795 111.48 168.668L109.511 168.237C108.425 167.989 107.622 167.596 107.102 167.055C106.588 166.515 106.33 165.831 106.33 165.003C106.33 164.317 106.522 163.716 106.906 163.201C107.289 162.686 107.819 162.285 108.496 161.997C109.172 161.704 109.947 161.558 110.821 161.558C112.078 161.558 113.067 161.83 113.789 162.376C114.511 162.916 114.988 163.64 115.22 164.549Z" fill="white"/>
</g>
<defs>
<filter id="filter0_d_1_139" x="0" y="0" width="493.143" height="240" filterUnits="userSpaceOnUse" color-interpolation-filters="sRGB">
<feFlood flood-opacity="0" result="BackgroundImageFix"/>
<feColorMatrix in="SourceAlpha" type="matrix" values="0 0 0 0 0 0 0 0 0 0 0 0 0 0 0 0 0 0 127 0" result="hardAlpha"/>
<feMorphology radius="56" operator="erode" in="SourceAlpha" result="effect1_dropShadow_1_139"/>
<feOffset dy="32"/>
<feGaussianBlur stdDeviation="32"/>
<feComposite in2="hardAlpha" operator="out"/>
<feColorMatrix type="matrix" values="0 0 0 0 0.921569 0 0 0 0 0.25098 0 0 0 0 0.156863 0 0 0 0.2 0"/>
<feBlend mode="normal" in2="BackgroundImageFix" result="effect1_dropShadow_1_139"/>
<feBlend mode="normal" in="SourceGraphic" in2="effect1_dropShadow_1_139" result="shape"/>
</filter>
<linearGradient id="paint0_linear_1_139" x1="8.00001" y1="200" x2="754.95" y2="200" gradientUnits="userSpaceOnUse">
<stop offset="0.144181" stop-color="#EB4028"/>
<stop offset="0.918511" stop-color="#FDEAE7"/>
</linearGradient>
</defs>
</svg>
