<svg width="239" height="144" viewBox="0 0 239 144" fill="none" xmlns="http://www.w3.org/2000/svg">
<rect width="238.846" height="144" rx="5.53846" fill="url(#paint0_linear_1_196)"/>
<path d="M28.1093 34.986V59.1539H24.4511V38.6443H24.3094L18.5271 42.4205V38.9275L24.5573 34.986H28.1093ZM34.6469 59.1539V56.5105L42.8247 48.0376C43.698 47.1172 44.4178 46.3108 44.9843 45.6185C45.5586 44.9183 45.9873 44.2535 46.2705 43.6241C46.5538 42.9948 46.6954 42.3261 46.6954 41.618C46.6954 40.8156 46.5066 40.1233 46.1289 39.5411C45.7513 38.9511 45.236 38.4987 44.583 38.184C43.9301 37.8615 43.1945 37.7002 42.3763 37.7002C41.5109 37.7002 40.7557 37.8772 40.1106 38.2312C39.4655 38.5852 38.9698 39.0848 38.6237 39.7299C38.2775 40.375 38.1045 41.1303 38.1045 41.9956H34.6233C34.6233 40.5245 34.9615 39.2382 35.6381 38.1368C36.3147 37.0354 37.243 36.1818 38.4231 35.5761C39.6032 34.9624 40.9445 34.6556 42.4471 34.6556C43.9655 34.6556 45.3029 34.9585 46.4594 35.5643C47.6237 36.1622 48.5323 36.9804 49.1853 38.0188C49.8383 39.0494 50.1648 40.2137 50.1648 41.5118C50.1648 42.4087 49.9956 43.2859 49.6573 44.1434C49.3269 45.0009 48.7487 45.9568 47.9226 47.0109C47.0966 48.0573 45.948 49.3278 44.4768 50.8226L39.674 55.8497V56.0267H50.5542V59.1539H34.6469ZM58.3191 53.0057L58.2955 48.6984H58.9091L66.1311 41.028H70.3558L62.1189 49.7605H61.5643L58.3191 53.0057ZM55.0739 59.1539V34.986H58.6023V59.1539H55.0739ZM66.5206 59.1539L60.0302 50.5394L62.4611 48.073L70.8514 59.1539H66.5206Z" fill="white"/>
<rect x="145.154" y="22.1539" width="77.0769" height="36.3077" rx="18.1538" fill="white"/>
<path d="M164.747 34.2238V46.3077H162.918V36.0529H162.847L159.956 37.941V36.1945L162.971 34.2238H164.747ZM172.223 46.5084C171.29 46.5044 170.494 46.2586 169.833 45.7708C169.172 45.283 168.667 44.573 168.317 43.6408C167.967 42.7085 167.792 41.5855 167.792 40.2717C167.792 38.9618 167.967 37.8427 168.317 36.9144C168.671 35.9861 169.178 35.278 169.839 34.7903C170.504 34.3025 171.298 34.0586 172.223 34.0586C173.147 34.0586 173.94 34.3045 174.601 34.7962C175.261 35.2839 175.767 35.992 176.117 36.9203C176.471 37.8447 176.648 38.9618 176.648 40.2717C176.648 41.5894 176.473 42.7144 176.123 43.6467C175.773 44.575 175.267 45.285 174.606 45.7767C173.946 46.2645 173.151 46.5084 172.223 46.5084ZM172.223 44.933C173.041 44.933 173.68 44.5337 174.14 43.7352C174.604 42.9367 174.837 41.7822 174.837 40.2717C174.837 39.2686 174.73 38.4209 174.518 37.7286C174.309 37.0324 174.009 36.5053 173.615 36.1473C173.226 35.7854 172.762 35.6045 172.223 35.6045C171.408 35.6045 170.769 36.0057 170.305 36.8082C169.841 37.6106 169.607 38.7651 169.603 40.2717C169.603 41.2787 169.707 42.1303 169.916 42.8265C170.128 43.5188 170.429 44.044 170.818 44.4019C171.208 44.7559 171.676 44.933 172.223 44.933ZM182.948 46.5084C182.016 46.5044 181.219 46.2586 180.558 45.7708C179.898 45.283 179.392 44.573 179.042 43.6408C178.692 42.7085 178.517 41.5855 178.517 40.2717C178.517 38.9618 178.692 37.8427 179.042 36.9144C179.396 35.9861 179.903 35.278 180.564 34.7903C181.229 34.3025 182.024 34.0586 182.948 34.0586C183.872 34.0586 184.665 34.3045 185.326 34.7962C185.987 35.2839 186.492 35.992 186.842 36.9203C187.196 37.8447 187.373 38.9618 187.373 40.2717C187.373 41.5894 187.198 42.7144 186.848 43.6467C186.498 44.575 185.993 45.285 185.332 45.7767C184.671 46.2645 183.876 46.5084 182.948 46.5084ZM182.948 44.933C183.766 44.933 184.405 44.5337 184.866 43.7352C185.33 42.9367 185.562 41.7822 185.562 40.2717C185.562 39.2686 185.456 38.4209 185.243 37.7286C185.035 37.0324 184.734 36.5053 184.341 36.1473C183.951 35.7854 183.487 35.6045 182.948 35.6045C182.134 35.6045 181.495 36.0057 181.03 36.8082C180.566 37.6106 180.332 38.7651 180.328 40.2717C180.328 41.2787 180.433 42.1303 180.641 42.8265C180.853 43.5188 181.154 44.044 181.544 44.4019C181.933 44.7559 182.401 44.933 182.948 44.933Z" fill="#1F0D8C"/>
<path fill-rule="evenodd" clip-rule="evenodd" d="M200.566 34.9729C200.296 34.7025 199.858 34.7025 199.587 34.9729L194.741 39.819C194.471 40.0894 194.471 40.5277 194.741 40.7981C195.012 41.0684 195.45 41.0684 195.72 40.7981L199.385 37.1338V45.1548C199.385 45.5372 199.695 45.8472 200.077 45.8472C200.459 45.8472 200.769 45.5372 200.769 45.1548V37.1337L204.434 40.7981C204.704 41.0684 205.142 41.0684 205.413 40.7981C205.683 40.5277 205.683 40.0894 205.413 39.819L200.566 34.9729Z" fill="#1F0D8C"/>
<path d="M25.8534 105.221C25.7799 104.569 25.4771 104.064 24.9447 103.706C24.4124 103.344 23.7424 103.163 22.9347 103.163C22.3564 103.163 21.8562 103.254 21.434 103.438C21.0118 103.617 20.6837 103.865 20.4496 104.181C20.2202 104.494 20.1054 104.849 20.1054 105.248C20.1054 105.583 20.1835 105.873 20.3395 106.116C20.5001 106.359 20.7089 106.563 20.9659 106.728C21.2275 106.889 21.5074 107.024 21.8057 107.135C22.104 107.24 22.3908 107.327 22.6662 107.396L24.0429 107.754C24.4927 107.864 24.9539 108.013 25.4266 108.202C25.8993 108.39 26.3375 108.638 26.7414 108.945C27.1452 109.252 27.471 109.633 27.7189 110.088C27.9713 110.542 28.0975 111.086 28.0975 111.719C28.0975 112.518 27.891 113.227 27.4779 113.846C27.0695 114.466 26.4752 114.955 25.695 115.312C24.9195 115.67 23.981 115.849 22.8796 115.849C21.8241 115.849 20.9108 115.682 20.1399 115.347C19.3689 115.012 18.7654 114.537 18.3294 113.922C17.8935 113.302 17.6525 112.568 17.6066 111.719H19.7406C19.7819 112.229 19.9471 112.653 20.2362 112.993C20.5299 113.328 20.904 113.578 21.3583 113.743C21.8172 113.904 22.3197 113.984 22.8658 113.984C23.467 113.984 24.0016 113.89 24.4697 113.702C24.9424 113.509 25.3141 113.243 25.5849 112.903C25.8557 112.559 25.991 112.157 25.991 111.699C25.991 111.281 25.8717 110.939 25.6331 110.673C25.399 110.407 25.0801 110.186 24.6762 110.012C24.277 109.838 23.825 109.684 23.3202 109.551L21.6543 109.096C20.5254 108.789 19.6305 108.337 18.9696 107.74C18.3134 107.144 17.9853 106.354 17.9853 105.372C17.9853 104.56 18.2055 103.851 18.6461 103.245C19.0867 102.64 19.6832 102.169 20.4359 101.834C21.1885 101.495 22.0375 101.325 22.9828 101.325C23.9374 101.325 24.7795 101.492 25.5092 101.827C26.2434 102.162 26.8217 102.623 27.2439 103.211C27.6661 103.794 27.8864 104.464 27.9047 105.221H25.8534ZM37.172 111.23V105.042H39.2371V115.615H37.2133V113.784H37.1031C36.8599 114.349 36.4698 114.819 35.9329 115.195C35.4005 115.567 34.7374 115.753 33.9435 115.753C33.2643 115.753 32.6631 115.604 32.1399 115.306C31.6214 115.003 31.2129 114.555 30.9146 113.963C30.6209 113.371 30.4741 112.639 30.4741 111.767V105.042H32.5323V111.52C32.5323 112.24 32.7319 112.814 33.1312 113.24C33.5305 113.667 34.049 113.881 34.6869 113.881C35.0724 113.881 35.4556 113.784 35.8365 113.592C36.222 113.399 36.541 113.107 36.7934 112.717C37.0504 112.327 37.1766 111.832 37.172 111.23ZM42.1678 115.615V101.517H44.2261V106.756H44.35C44.4693 106.536 44.6414 106.281 44.8663 105.992C45.0911 105.703 45.4032 105.45 45.8025 105.235C46.2017 105.014 46.7295 104.904 47.3857 104.904C48.2393 104.904 49.0011 105.12 49.6711 105.551C50.3411 105.983 50.8666 106.605 51.2475 107.417C51.633 108.229 51.8257 109.207 51.8257 110.349C51.8257 111.492 51.6353 112.472 51.2544 113.289C50.8735 114.101 50.3503 114.727 49.6849 115.168C49.0195 115.604 48.2599 115.822 47.4064 115.822C46.7639 115.822 46.2384 115.714 45.83 115.498C45.4261 115.283 45.1095 115.03 44.88 114.741C44.6506 114.452 44.4739 114.195 44.35 113.97H44.1779V115.615H42.1678ZM44.1848 110.329C44.1848 111.072 44.2926 111.724 44.5083 112.284C44.724 112.844 45.0361 113.282 45.4445 113.598C45.8529 113.91 46.3532 114.067 46.9452 114.067C47.5601 114.067 48.0741 113.904 48.4871 113.578C48.9001 113.247 49.2122 112.8 49.4233 112.235C49.639 111.671 49.7468 111.035 49.7468 110.329C49.7468 109.631 49.6413 109.005 49.4302 108.449C49.2237 107.894 48.9116 107.456 48.494 107.135C48.081 106.813 47.5647 106.653 46.9452 106.653C46.3486 106.653 45.8438 106.806 45.4307 107.114C45.0223 107.421 44.7125 107.85 44.5014 108.401C44.2903 108.952 44.1848 109.594 44.1848 110.329ZM62.0601 107.623L60.1946 107.954C60.1166 107.715 59.9927 107.488 59.8229 107.272C59.6577 107.057 59.4328 106.88 59.1483 106.742C58.8638 106.605 58.5081 106.536 58.0813 106.536C57.4985 106.536 57.0121 106.666 56.622 106.928C56.2319 107.185 56.0369 107.518 56.0369 107.926C56.0369 108.28 56.1677 108.564 56.4292 108.78C56.6908 108.995 57.113 109.172 57.6958 109.31L59.3755 109.695C60.3484 109.92 61.0735 110.267 61.5507 110.735C62.028 111.203 62.2666 111.811 62.2666 112.559C62.2666 113.192 62.0831 113.757 61.7159 114.252C61.3534 114.743 60.8463 115.129 60.1946 115.409C59.5476 115.689 58.7972 115.829 57.9437 115.829C56.7597 115.829 55.7936 115.576 55.0456 115.072C54.2976 114.562 53.8387 113.839 53.6689 112.903L55.6583 112.6C55.7822 113.119 56.0369 113.511 56.4223 113.777C56.8078 114.039 57.3104 114.17 57.9299 114.17C58.6045 114.17 59.1437 114.03 59.5476 113.75C59.9514 113.465 60.1533 113.119 60.1533 112.71C60.1533 112.38 60.0294 112.102 59.7816 111.877C59.5384 111.653 59.1644 111.483 58.6596 111.368L56.8698 110.976C55.8831 110.751 55.1534 110.393 54.6808 109.902C54.2127 109.411 53.9786 108.789 53.9786 108.036C53.9786 107.412 54.153 106.866 54.5018 106.398C54.8506 105.93 55.3324 105.565 55.9474 105.304C56.5623 105.037 57.2668 104.904 58.0607 104.904C59.2034 104.904 60.1029 105.152 60.7591 105.648C61.4154 106.139 61.849 106.797 62.0601 107.623ZM68.9835 115.829C67.9601 115.829 67.079 115.597 66.3401 115.133C65.6058 114.665 65.0414 114.021 64.6467 113.199C64.252 112.378 64.0547 111.437 64.0547 110.377C64.0547 109.303 64.2566 108.355 64.6605 107.534C65.0643 106.708 65.6334 106.063 66.3676 105.6C67.1019 105.136 67.967 104.904 68.9628 104.904C69.7659 104.904 70.4818 105.053 71.1105 105.352C71.7392 105.645 72.2463 106.058 72.6318 106.591C73.0219 107.123 73.2537 107.745 73.3271 108.456H71.3239C71.2138 107.961 70.9614 107.534 70.5667 107.176C70.1766 106.818 69.6535 106.639 68.9972 106.639C68.4236 106.639 67.9211 106.79 67.4897 107.093C67.0629 107.392 66.7302 107.818 66.4915 108.374C66.2529 108.924 66.1336 109.576 66.1336 110.329C66.1336 111.1 66.2506 111.765 66.4847 112.325C66.7187 112.885 67.0491 113.318 67.4759 113.626C67.9073 113.933 68.4144 114.087 68.9972 114.087C69.3873 114.087 69.7407 114.016 70.0573 113.874C70.3786 113.727 70.647 113.518 70.8627 113.247C71.083 112.977 71.2367 112.651 71.3239 112.27H73.3271C73.2537 112.954 73.0311 113.564 72.6594 114.101C72.2877 114.638 71.7897 115.06 71.1656 115.368C70.5461 115.675 69.8187 115.829 68.9835 115.829ZM75.5282 115.615V105.042H77.5176V106.722H77.6277C77.8205 106.153 78.1601 105.705 78.6465 105.379C79.1376 105.049 79.6928 104.884 80.3124 104.884C80.4409 104.884 80.5923 104.888 80.7667 104.897C80.9457 104.907 81.0856 104.918 81.1866 104.932V106.901C81.104 106.878 80.9572 106.852 80.7461 106.825C80.535 106.793 80.3238 106.777 80.1127 106.777C79.6263 106.777 79.1926 106.88 78.8117 107.086C78.4354 107.288 78.1371 107.571 77.9168 107.933C77.6966 108.291 77.5864 108.699 77.5864 109.158V115.615H75.5282ZM82.9678 115.615V105.042H85.026V115.615H82.9678ZM84.0072 103.41C83.6493 103.41 83.3418 103.291 83.0848 103.053C82.8324 102.809 82.7062 102.52 82.7062 102.185C82.7062 101.846 82.8324 101.556 83.0848 101.318C83.3418 101.075 83.6493 100.953 84.0072 100.953C84.3652 100.953 84.6704 101.075 84.9228 101.318C85.1798 101.556 85.3083 101.846 85.3083 102.185C85.3083 102.52 85.1798 102.809 84.9228 103.053C84.6704 103.291 84.3652 103.41 84.0072 103.41ZM87.9602 115.615V101.517H90.0185V106.756H90.1424C90.2617 106.536 90.4338 106.281 90.6586 105.992C90.8835 105.703 91.1956 105.45 91.5948 105.235C91.9941 105.014 92.5218 104.904 93.1781 104.904C94.0317 104.904 94.7935 105.12 95.4635 105.551C96.1335 105.983 96.659 106.605 97.0399 107.417C97.4254 108.229 97.6181 109.207 97.6181 110.349C97.6181 111.492 97.4277 112.472 97.0468 113.289C96.6659 114.101 96.1427 114.727 95.4773 115.168C94.8118 115.604 94.0523 115.822 93.1987 115.822C92.5563 115.822 92.0308 115.714 91.6224 115.498C91.2185 115.283 90.9019 115.03 90.6724 114.741C90.4429 114.452 90.2663 114.195 90.1424 113.97H89.9703V115.615H87.9602ZM89.9771 110.329C89.9771 111.072 90.085 111.724 90.3007 112.284C90.5164 112.844 90.8284 113.282 91.2369 113.598C91.6453 113.91 92.1455 114.067 92.7375 114.067C93.3525 114.067 93.8665 113.904 94.2795 113.578C94.6925 113.247 95.0046 112.8 95.2157 112.235C95.4314 111.671 95.5392 111.035 95.5392 110.329C95.5392 109.631 95.4337 109.005 95.2226 108.449C95.016 107.894 94.704 107.456 94.2864 107.135C93.8733 106.813 93.3571 106.653 92.7375 106.653C92.1409 106.653 91.6361 106.806 91.2231 107.114C90.8147 107.421 90.5049 107.85 90.2938 108.401C90.0827 108.952 89.9771 109.594 89.9771 110.329ZM104.486 115.829C103.445 115.829 102.547 115.606 101.795 115.161C101.047 114.711 100.469 114.08 100.06 113.268C99.6563 112.451 99.4543 111.494 99.4543 110.397C99.4543 109.314 99.6563 108.36 100.06 107.534C100.469 106.708 101.038 106.063 101.767 105.6C102.502 105.136 103.36 104.904 104.342 104.904C104.938 104.904 105.517 105.003 106.077 105.2C106.636 105.398 107.139 105.707 107.584 106.13C108.029 106.552 108.38 107.1 108.637 107.775C108.894 108.445 109.023 109.259 109.023 110.219V110.948H100.618V109.406H107.006C107.006 108.865 106.896 108.385 106.675 107.968C106.455 107.545 106.145 107.213 105.746 106.969C105.351 106.726 104.888 106.605 104.356 106.605C103.777 106.605 103.273 106.747 102.841 107.031C102.414 107.311 102.084 107.678 101.85 108.133C101.62 108.582 101.506 109.071 101.506 109.599V110.804C101.506 111.51 101.63 112.112 101.877 112.607C102.13 113.103 102.481 113.481 102.931 113.743C103.38 114 103.906 114.128 104.507 114.128C104.897 114.128 105.253 114.073 105.574 113.963C105.895 113.849 106.173 113.679 106.407 113.454C106.641 113.229 106.82 112.951 106.944 112.621L108.892 112.972C108.736 113.546 108.456 114.048 108.052 114.48C107.653 114.906 107.15 115.239 106.545 115.478C105.943 115.712 105.257 115.829 104.486 115.829ZM111.306 115.615V105.042H113.296V106.722H113.406C113.599 106.153 113.938 105.705 114.425 105.379C114.916 105.049 115.471 104.884 116.091 104.884C116.219 104.884 116.371 104.888 116.545 104.897C116.724 104.907 116.864 104.918 116.965 104.932V106.901C116.882 106.878 116.735 106.852 116.524 106.825C116.313 106.793 116.102 106.777 115.891 106.777C115.405 106.777 114.971 106.88 114.59 107.086C114.214 107.288 113.915 107.571 113.695 107.933C113.475 108.291 113.365 108.699 113.365 109.158V115.615H111.306ZM126.669 107.623L124.804 107.954C124.726 107.715 124.602 107.488 124.432 107.272C124.267 107.057 124.042 106.88 123.757 106.742C123.473 106.605 123.117 106.536 122.69 106.536C122.108 106.536 121.621 106.666 121.231 106.928C120.841 107.185 120.646 107.518 120.646 107.926C120.646 108.28 120.777 108.564 121.038 108.78C121.3 108.995 121.722 109.172 122.305 109.31L123.985 109.695C124.957 109.92 125.683 110.267 126.16 110.735C126.637 111.203 126.876 111.811 126.876 112.559C126.876 113.192 126.692 113.757 126.325 114.252C125.962 114.743 125.455 115.129 124.804 115.409C124.157 115.689 123.406 115.829 122.553 115.829C121.369 115.829 120.403 115.576 119.655 115.072C118.907 114.562 118.448 113.839 118.278 112.903L120.267 112.6C120.391 113.119 120.646 113.511 121.031 113.777C121.417 114.039 121.919 114.17 122.539 114.17C123.214 114.17 123.753 114.03 124.157 113.75C124.561 113.465 124.762 113.119 124.762 112.71C124.762 112.38 124.639 112.102 124.391 111.877C124.147 111.653 123.773 111.483 123.269 111.368L121.479 110.976C120.492 110.751 119.763 110.393 119.29 109.902C118.822 109.411 118.588 108.789 118.588 108.036C118.588 107.412 118.762 106.866 119.111 106.398C119.46 105.93 119.942 105.565 120.556 105.304C121.171 105.037 121.876 104.904 122.67 104.904C123.812 104.904 124.712 105.152 125.368 105.648C126.024 106.139 126.458 106.797 126.669 107.623Z" fill="white"/>
<defs>
<linearGradient id="paint0_linear_1_196" x1="4.70928e-06" y1="144" x2="373.905" y2="144" gradientUnits="userSpaceOnUse">
<stop offset="0.144181" stop-color="#4328EB"/>
<stop offset="0.918511" stop-color="#F5F4FF"/>
</linearGradient>
</defs>
</svg>
