<svg width="133" height="40" viewBox="0 0 133 40" fill="none" xmlns="http://www.w3.org/2000/svg">
<path fill-rule="evenodd" clip-rule="evenodd" d="M21.5817 4.51292C21.5817 2.24223 23.3293 0.414307 25.5 0.414307C27.6708 0.414307 29.4184 2.24223 29.4184 4.51292V14.6014C29.4184 16.8721 27.6708 18.7 25.5 18.7C23.3293 18.7 21.5817 16.8721 21.5817 14.6014V4.51292ZM73.0909 31.5184L69.5039 31.5118L69.5025 31.512C69.125 31.4989 68.9342 31.3241 68.8925 30.9647C68.8509 30.6052 68.7212 11.6161 68.9141 3.37965C68.9147 3.23349 69.0192 3.10758 69.1648 3.07754C69.9544 2.87653 72.4177 2.84871 73.2821 2.96312C73.4732 2.98755 73.5946 3.09047 73.6061 3.36828C73.7423 6.56201 73.8355 26.7989 73.6195 31.0495C73.6166 31.1148 73.6006 31.1789 73.5724 31.238C73.5442 31.297 73.5044 31.3498 73.4553 31.3931C73.3552 31.4815 73.2242 31.5265 73.0909 31.5184ZM58.3439 11.2874C53.3241 11.2874 50.5649 13.885 50.5649 17.6064L50.5955 17.6034C50.5955 21.4636 53.7369 22.728 57.643 23.4516C60.0733 23.9056 61.6109 24.5315 61.6323 25.6048C61.6574 26.8236 60.4839 27.5455 58.544 27.5912L58.0405 27.588C55.8696 27.5161 54.0146 26.4037 52.8776 25.7093C52.5533 25.51 51.9268 25.5604 51.6891 25.8791C51.2617 26.3694 50.7199 27.3036 50.3973 28.1173C50.1165 28.7478 50.6418 29.2739 50.6883 29.313C52.0679 30.4844 54.6407 31.6868 58.2678 31.7586C63.7529 31.8549 66.5786 28.7167 66.5786 25.2453C66.5786 21.158 63.5236 19.9932 59.4811 19.3122C57.3084 18.9474 55.5165 18.4901 55.5497 17.2224C55.5536 17.0327 55.5948 16.8419 55.6712 16.6507C56.0502 15.6886 57.1206 15.2507 58.4039 15.2229C58.7826 15.2148 59.1566 15.2342 59.5141 15.2718C60.8963 15.4165 62.4136 16.1738 63.3884 16.6604L63.5033 16.7177C63.7693 16.8517 64.2895 16.8993 64.4939 16.5283L65.5994 14.2559C65.7674 13.8683 65.6271 13.4179 65.2669 13.1891C63.9089 12.248 61.4023 11.2874 58.3439 11.2874ZM80.721 25.7925C80.7942 23.6769 83.3191 22.9369 86.0733 22.901L86.0729 22.9027C86.8108 22.932 87.2447 23.0072 87.8299 23.2488C87.9479 23.2965 88.2154 23.5509 88.2187 23.6818C88.2322 24.3075 88.1989 25.7694 87.9661 26.1615C87.3394 27.2155 85.9165 28.011 84.0517 28.1873C82.1055 28.2951 80.721 27.4701 80.721 25.7925ZM84.8214 11.5786C80.7321 11.4855 78.1973 13.2481 76.9091 14.3803L76.9029 14.3479C76.7366 14.4949 76.6068 14.7287 76.6983 15.0096C76.7899 15.2904 77.9799 17.0454 78.4519 17.6462C78.5486 17.7687 78.8458 17.8487 79.0371 17.7394C79.1219 17.6907 79.2192 17.6334 79.3273 17.5698C80.2534 17.0253 81.9729 16.0142 83.4286 15.9016C83.8516 15.8716 84.2763 15.8827 84.6969 15.9343C86.7414 16.1842 87.7136 17.1072 87.9631 18.254C88.0626 18.705 88.0859 19.6541 88.0793 20.1522C88.0761 20.3026 87.8549 20.3645 87.7469 20.3222C86.0547 19.6605 83.8176 19.4024 81.8328 19.6932C78.7344 20.1475 75.9139 22.0766 75.9038 25.9858C75.894 29.8036 79.2181 31.7312 82.5526 31.7312C84.7469 31.7312 86.8111 31.0777 88.071 29.7707C88.1211 29.7381 88.3155 29.7315 88.3205 29.934L88.3487 30.9436C88.3553 31.1868 88.4103 31.4171 88.8839 31.4399L92.7503 31.4317C92.8083 31.4419 92.8678 31.4382 92.924 31.4208C92.9802 31.4033 93.0314 31.3727 93.0734 31.3315C93.1578 31.2482 93.1954 31.1293 93.174 31.0135C93.2202 29.3177 93.3996 22.5092 93.2916 20.0684C93.0275 14.1631 90.1902 11.6881 84.8214 11.5786ZM105.141 11.544C98.8632 11.5865 94.9971 16.1866 95.0303 21.6397L95.0154 21.6201C95.0471 27.0926 98.4279 31.8038 105.243 31.755C108.497 31.7369 110.957 30.4055 112.231 28.8212C112.342 28.6839 112.571 28.3408 112.264 27.991C111.793 27.3754 110.947 26.4605 110.357 25.8675C110.056 25.6355 109.784 25.5246 109.521 25.7499C108.698 26.4933 107.139 27.4014 105.532 27.3622C102.44 27.2919 100.303 25.3202 100.28 21.7263C100.253 17.9835 102.504 15.948 105.522 15.948C107.186 15.948 108.878 16.6605 109.767 17.2437C109.812 17.2729 109.856 17.3034 109.899 17.3334C110.163 17.518 110.4 17.6825 110.618 17.4072C111.285 16.5362 111.876 15.6092 112.383 14.6365C112.455 14.4421 112.505 14.2804 112.405 14.0876C111.903 13.2642 109.058 11.5197 105.141 11.544ZM132.326 30.7911C131.278 31.0262 127.864 31.4903 127.544 31.5133L127.533 31.5419C127.373 31.5469 127.164 31.537 126.984 31.2854L124.602 27.9026C124.112 27.1887 123.607 26.4427 123.142 25.7556L123.14 25.7519L123.138 25.7485L123.137 25.7471L123.137 25.7469C122.374 24.6202 121.72 23.6535 121.416 23.2502C121.316 23.1164 121.16 23.1097 121.06 23.2044L119.328 24.9886C119.245 25.0572 119.195 25.3151 119.195 25.3151L119.122 31.131C119.122 31.131 119.062 31.4691 118.573 31.4691C117.579 31.4871 115.453 31.4902 114.594 31.4414C114.379 31.4261 114.211 31.2515 114.208 31.0395C114.089 28.0073 113.806 6.33769 114.005 3.38585C114.056 3.14331 114.252 2.95588 114.499 2.91212L118.414 2.92035C118.582 2.92819 118.881 3.11274 118.887 3.3579L119.048 19.0486C119.05 19.3996 119.193 19.4538 119.442 19.2089L126.939 11.8982C127.281 11.5716 127.73 11.5438 128.102 11.6206C128.985 11.8053 130.538 12.1566 131.498 12.4374C131.994 12.583 132.346 12.8524 131.761 13.4732L125.268 19.8706C125.135 20.0012 125.129 20.1644 125.252 20.328L128.8 24.7991L132.535 30.3044C132.679 30.5183 132.586 30.7323 132.326 30.7911ZM11.1327 25.4128C11.1327 23.1421 12.8803 21.3142 15.0511 21.3142C17.2218 21.3142 18.9694 23.1421 18.9694 25.4128V35.5013C18.9694 37.7719 17.2218 39.5999 15.0511 39.5999C12.8803 39.5999 11.1327 37.7719 11.1327 35.5013V25.4128ZM21.5817 25.2326C21.5817 27.4034 23.4097 29.1509 25.6803 29.1509H35.769C38.0397 29.1509 39.8676 27.4034 39.8676 25.2326C39.8676 23.0618 38.0396 21.3142 35.769 21.3142H25.6803C23.4096 21.3142 21.5817 23.0618 21.5817 25.2326ZM0.683716 14.7826C0.683716 16.9534 2.51163 18.701 4.78233 18.701H14.8708C17.1415 18.701 18.9694 16.9534 18.9694 14.7826C18.9694 12.6118 17.1415 10.8643 14.8708 10.8643H4.78233C2.51163 10.8643 0.683716 12.6118 0.683716 14.7826ZM21.5817 35.6789C21.5817 37.8496 23.3293 39.5972 25.5 39.5972C27.6708 39.5972 29.4184 37.8496 29.4184 35.6789C29.4184 33.5081 27.6708 31.7605 25.5 31.7605H21.5817V35.6789ZM32.0306 18.701H35.949C38.1198 18.701 39.8674 16.9534 39.8674 14.7826C39.8674 12.6118 38.1198 10.8643 35.949 10.8643C33.7782 10.8643 32.0306 12.6118 32.0306 14.7826V18.701ZM4.60208 21.3142H8.52045V25.2326C8.52045 27.4034 6.77286 29.1509 4.60208 29.1509C2.43131 29.1509 0.683716 27.4034 0.683716 25.2326C0.683716 23.0618 2.43131 21.3142 4.60208 21.3142ZM18.9695 8.25104V4.33267C18.9695 2.1619 17.2219 0.414307 15.0511 0.414307C12.8803 0.414307 11.1327 2.1619 11.1327 4.33267C11.1327 6.50345 12.8803 8.25104 15.0511 8.25104H18.9695Z" fill="white"/>
</svg>
