<svg width="180" height="45" viewBox="0 0 180 45" fill="none" xmlns="http://www.w3.org/2000/svg">
<path fill-rule="evenodd" clip-rule="evenodd" d="M26.5875 15.9226H42.9494L29.7146 25.6439L34.7685 41.3671L21.5337 31.6458L8.28305 41.3671L13.3527 25.6439L0.102097 15.9066L16.464 15.9226L21.5337 0.18335L26.5875 15.9226ZM65.234 15.9216H47.119H47.1033V19.3376H54.1945V38.5408H58.1112V19.3376H65.234V15.9216ZM67.8083 22.163H64.4601H64.4444V38.5248H68.0136V30.735C68.0136 29.8251 68.1242 29.027 68.3611 28.3247C68.598 27.6223 68.9139 27.0476 69.3087 26.5688C69.7035 26.1058 70.1615 25.7387 70.6985 25.4993C71.2355 25.2598 71.8041 25.1321 72.4042 25.1321C72.6569 25.1321 72.9096 25.1481 73.1781 25.18C73.4466 25.2119 73.6993 25.2438 73.952 25.2917V21.8119C73.8592 21.8033 73.7709 21.7903 73.6847 21.7775C73.6095 21.7664 73.5359 21.7555 73.4624 21.748C73.3044 21.7321 73.0043 21.7161 72.5937 21.7161C72.0567 21.7161 71.5198 21.8278 70.9986 22.0353C70.4774 22.2588 70.0036 22.5302 69.5772 22.8814C69.1508 23.2166 68.7875 23.6157 68.4874 24.0307C68.1874 24.4457 67.9821 24.8767 67.8715 25.3237H67.8083V22.163ZM86.8551 38.5408H90.3612V22.179H86.7919V31.6768C86.7919 32.3153 86.7288 32.9059 86.5866 33.4487C86.4445 33.9914 86.2234 34.4703 85.9075 34.8534C85.6074 35.2525 85.1968 35.5558 84.6914 35.7952C84.186 36.0346 83.5701 36.1464 82.812 36.1464C81.8328 36.1464 81.059 35.8431 80.522 35.2525C79.9692 34.6618 79.7007 33.6402 79.7007 32.2036V22.163H76.1314V32.5548C76.1314 34.7097 76.6052 36.322 77.5528 37.3915C78.5004 38.461 80.0482 38.9877 82.1803 38.9877C83.0805 38.9877 83.9649 38.7323 84.8336 38.2375C85.7022 37.7426 86.3497 37.0882 86.7919 36.2581H86.8551V38.5408ZM97.6262 35.5079C96.9471 35.0769 96.5522 34.3426 96.4417 33.2891V33.321H92.8408C92.8724 34.2947 93.0619 35.1407 93.4251 35.8431C93.7884 36.5454 94.2938 37.1361 94.9255 37.6149C95.5573 38.0779 96.3153 38.429 97.184 38.6685C98.0526 38.9079 99.0002 39.0197 100.027 39.0197C100.864 39.0197 101.717 38.9239 102.569 38.7323C103.422 38.5408 104.212 38.2215 104.907 37.8065C105.602 37.3915 106.17 36.8328 106.613 36.1623C107.055 35.4759 107.276 34.6618 107.276 33.6881C107.276 32.89 107.118 32.2036 106.818 31.6609C106.518 31.1181 106.123 30.6712 105.633 30.304C105.144 29.9369 104.591 29.6496 103.959 29.442C103.328 29.2345 102.696 29.043 102.048 28.8993C101.906 28.8684 101.763 28.8374 101.622 28.8067C101.107 28.6945 100.601 28.5845 100.106 28.4843C99.474 28.3566 98.9212 28.1969 98.4316 28.0214C97.942 27.8298 97.5472 27.6063 97.2471 27.335C96.9471 27.0636 96.7891 26.7124 96.7891 26.2655C96.7891 25.8983 96.8997 25.611 97.105 25.3875C97.3261 25.164 97.5788 24.9884 97.8789 24.8767C98.1947 24.765 98.5106 24.6852 98.8581 24.6373C99.2055 24.5894 99.5056 24.5734 99.7583 24.5734C100.548 24.5734 101.259 24.7171 101.875 25.0204C102.491 25.3077 102.87 25.8983 103.043 26.7603H106.771C106.66 25.8504 106.407 25.0683 105.997 24.4298C105.586 23.7912 105.081 23.2645 104.465 22.8654C103.849 22.4504 103.154 22.163 102.396 21.9875C101.638 21.8119 100.832 21.7161 99.9952 21.7161C99.2687 21.7161 98.4948 21.7959 97.6894 21.9396C96.8839 22.0992 96.1574 22.3546 95.4941 22.7217C94.8465 23.0889 94.2938 23.5678 93.8674 24.1743C93.4409 24.7809 93.2198 25.5152 93.2198 26.4091C93.2198 27.2392 93.362 27.9256 93.662 28.4843C93.9463 29.043 94.3412 29.5059 94.8308 29.8571C95.3204 30.2242 95.8731 30.5115 96.4891 30.7191C97.105 30.9266 97.7525 31.1181 98.4158 31.2618C98.5328 31.2877 98.6493 31.3137 98.7654 31.3396C99.2916 31.4568 99.8092 31.5722 100.327 31.6768C100.959 31.8045 101.511 31.9641 102.001 32.1397C102.491 32.3313 102.885 32.5548 103.201 32.8581C103.517 33.1454 103.691 33.5285 103.707 33.9914C103.722 34.4543 103.612 34.8215 103.375 35.1088C103.122 35.3961 102.822 35.6196 102.443 35.7633C102.08 35.9069 101.669 36.0187 101.243 36.0666C100.816 36.1144 100.437 36.1464 100.106 36.1464C99.1423 36.1464 98.3211 35.9229 97.6262 35.5079ZM110.924 22.163H108.255V24.8927H110.956V34.5501C110.972 35.2205 111.051 35.8271 111.161 36.3539C111.287 36.8807 111.493 37.3117 111.824 37.6628C112.14 38.014 112.598 38.2854 113.167 38.461C113.735 38.6366 114.493 38.7323 115.441 38.7323C115.836 38.7323 116.215 38.7164 116.594 38.6685C116.792 38.6423 117 38.6209 117.212 38.5991C117.389 38.581 117.568 38.5625 117.747 38.5408V35.7473C117.494 35.8112 117.242 35.8431 116.989 35.859C116.736 35.875 116.483 35.875 116.231 35.875C115.82 35.875 115.52 35.8271 115.283 35.7313C115.046 35.6356 114.873 35.4919 114.762 35.3004C114.651 35.1088 114.572 34.8694 114.541 34.598C114.509 34.3107 114.493 33.9914 114.493 33.6083V24.8607H117.715V22.163H114.493V17.2465H110.924V22.163ZM123.622 22.163H120.242V44.5906H123.812V36.4177H123.875C124.159 36.8487 124.491 37.2318 124.901 37.5671C125.296 37.9023 125.754 38.1736 126.228 38.3812C126.702 38.5887 127.207 38.7483 127.728 38.8441C128.249 38.9398 128.771 38.9877 129.292 38.9877C130.492 38.9877 131.519 38.7483 132.403 38.2694C133.288 37.7905 134.014 37.168 134.583 36.3699C135.151 35.5717 135.578 34.6618 135.862 33.6243C136.146 32.6027 136.288 31.5332 136.288 30.4317C136.288 29.2345 136.13 28.1012 135.814 27.0476C135.499 25.9941 135.041 25.0683 134.409 24.2701C133.777 23.472 132.987 22.8494 132.04 22.4025C131.092 21.9396 129.987 21.7161 128.707 21.7161C127.649 21.7161 126.686 21.9236 125.786 22.3386C124.885 22.7537 124.191 23.4241 123.685 24.3819H123.622V22.163ZM132.435 28.2129C132.624 28.9153 132.719 29.6336 132.719 30.3679C132.719 31.0862 132.64 31.7886 132.498 32.475C132.34 33.1614 132.071 33.7679 131.708 34.3107C131.345 34.8374 130.887 35.2844 130.318 35.6196C129.75 35.9548 129.071 36.1304 128.249 36.1304C127.523 36.1304 126.875 35.9867 126.323 35.6835C125.77 35.3961 125.296 34.9971 124.901 34.4863C124.491 33.9754 124.206 33.3689 124.001 32.6665C123.796 31.9641 123.701 31.1979 123.701 30.3679C123.701 28.612 124.08 27.2073 124.838 26.1537C125.596 25.1002 126.733 24.5734 128.234 24.5734C128.96 24.5734 129.608 24.749 130.176 25.0683C130.729 25.3875 131.203 25.8185 131.582 26.3612C131.961 26.904 132.245 27.5106 132.435 28.2129ZM142.59 15.9216H139.021V19.3376H142.59V15.9216ZM142.59 22.163H139.021V38.5408H142.59V22.163ZM149.349 15.9216H145.78V38.5408H149.349V15.9216ZM156.835 38.3333C157.846 38.7643 158.999 38.9877 160.294 38.9877C161.589 38.9877 162.742 38.7643 163.753 38.3333C164.764 37.9023 165.632 37.3117 166.327 36.5454C167.022 35.7792 167.559 34.8694 167.922 33.8158C168.286 32.7623 168.475 31.597 168.475 30.336C168.475 29.0909 168.286 27.9415 167.922 26.888C167.559 25.8345 167.022 24.9246 166.327 24.1584C165.617 23.4081 164.764 22.8016 163.753 22.3706C162.742 21.9396 161.589 21.7161 160.294 21.7161C158.999 21.7161 157.846 21.9396 156.835 22.3706C155.825 22.8016 154.956 23.3922 154.261 24.1584C153.566 24.9246 153.029 25.8345 152.666 26.888C152.303 27.9415 152.113 29.0909 152.113 30.336C152.113 31.597 152.303 32.7623 152.666 33.8158C153.029 34.8694 153.566 35.7792 154.261 36.5454C154.972 37.2957 155.825 37.9023 156.835 38.3333ZM162.363 35.6196C161.779 35.9548 161.084 36.1304 160.294 36.1304C159.505 36.1304 158.81 35.9708 158.225 35.6196C157.641 35.2844 157.167 34.8374 156.788 34.2947C156.409 33.752 156.125 33.1294 155.951 32.443C155.777 31.7566 155.683 31.0543 155.683 30.336C155.683 29.6336 155.777 28.9472 155.951 28.2448C156.141 27.5425 156.409 26.9359 156.788 26.3932C157.167 25.8664 157.641 25.4194 158.225 25.0842C158.81 24.749 159.505 24.5734 160.294 24.5734C161.084 24.5734 161.779 24.749 162.363 25.0842C162.947 25.4194 163.421 25.8504 163.8 26.3932C164.179 26.9359 164.464 27.5425 164.637 28.2448C164.811 28.9472 164.906 29.6336 164.906 30.336C164.906 31.0543 164.811 31.7566 164.637 32.443C164.448 33.1294 164.179 33.752 163.8 34.2947C163.421 34.8374 162.947 35.2844 162.363 35.6196ZM172.218 22.163H169.549V24.8927H172.25V34.5501C172.266 35.2205 172.345 35.8271 172.455 36.3539C172.581 36.8807 172.787 37.3117 173.118 37.6628C173.434 38.014 173.892 38.2854 174.461 38.461C175.029 38.6366 175.787 38.7323 176.735 38.7323C177.13 38.7323 177.509 38.7164 177.888 38.6685C178.086 38.6423 178.294 38.6209 178.506 38.5991C178.683 38.581 178.862 38.5625 179.041 38.5408V35.7473C178.788 35.8112 178.536 35.8431 178.283 35.859C178.03 35.875 177.777 35.875 177.525 35.875C177.114 35.875 176.814 35.8271 176.577 35.7313C176.34 35.6356 176.167 35.4919 176.056 35.3004C175.945 35.1088 175.866 34.8694 175.835 34.598C175.803 34.3107 175.787 33.9914 175.787 33.6083V24.8607H179.009V22.163H175.787V17.2465H172.218V22.163Z" fill="white"/>
</svg>
